<svg width="56" height="24" viewBox="0 0 56 24" fill="none" xmlns="http://www.w3.org/2000/svg">
<rect width="56" height="24" rx="12" fill="#27AE60"/>
<path d="M22.9126 18.778V16.552H18.6146V15.18L23.4026 9.006H24.4526V15.152H25.6846V16.552H24.4526V18.778H22.9126ZM20.1826 15.152H23.0806V11.358L20.1826 15.152ZM27.063 17V15.208H28.337V17H27.063ZM37.0855 13.696C37.0855 14.3307 36.9268 14.9093 36.6095 15.432C36.3015 15.9547 35.8721 16.37 35.3215 16.678C34.7801 16.986 34.1735 17.14 33.5015 17.14C32.7735 17.14 32.1341 16.9673 31.5835 16.622C31.0421 16.2673 30.6175 15.7587 30.3095 15.096C30.0108 14.4333 29.8615 13.6447 29.8615 12.73C29.8615 11.4607 30.0155 10.4013 30.3235 9.552C30.6408 8.70267 31.0841 8.06333 31.6535 7.634C32.2228 7.20467 32.8901 6.99 33.6555 6.99C34.2901 6.99 34.8688 7.13933 35.3915 7.438C35.9235 7.72733 36.3528 8.13333 36.6795 8.656L35.7695 9.608C35.5548 9.216 35.2561 8.908 34.8735 8.684C34.5001 8.45067 34.0848 8.334 33.6275 8.334C33.1701 8.334 32.7641 8.46933 32.4095 8.74C32.0641 9.00133 31.7935 9.384 31.5975 9.888C31.4108 10.392 31.3128 11.0033 31.3035 11.722C31.4435 11.442 31.6255 11.204 31.8495 11.008C32.0828 10.8027 32.3535 10.644 32.6615 10.532C32.9695 10.42 33.2961 10.364 33.6415 10.364C34.2948 10.364 34.8781 10.5133 35.3915 10.812C35.9141 11.1107 36.3248 11.512 36.6235 12.016C36.9315 12.5107 37.0855 13.0707 37.0855 13.696ZM33.5015 15.824C33.8841 15.824 34.2341 15.7307 34.5515 15.544C34.8781 15.348 35.1348 15.0867 35.3215 14.76C35.5175 14.4333 35.6155 14.0787 35.6155 13.696C35.6155 13.3133 35.5175 12.9633 35.3215 12.646C35.1348 12.3287 34.8828 12.0767 34.5655 11.89C34.2481 11.694 33.8935 11.596 33.5015 11.596C33.1281 11.596 32.7781 11.694 32.4515 11.89C32.1248 12.0767 31.8635 12.3287 31.6675 12.646C31.4808 12.9633 31.3875 13.3133 31.3875 13.696C31.3875 14.0787 31.4855 14.4333 31.6815 14.76C31.8775 15.0773 32.1341 15.334 32.4515 15.53C32.7781 15.726 33.1281 15.824 33.5015 15.824Z" fill="#ECEFF1"/>
</svg>
